<svg xmlns="http://www.w3.org/2000/svg" xmlns:xlink="http://www.w3.org/1999/xlink" width="2000" zoomAndPan="magnify" viewBox="0 0 1500 1499.999933" height="2000" preserveAspectRatio="xMidYMid meet" version="1.0"><defs><clipPath id="020d31a76a"><path d="M 0 0 L 1498.046875 0 L 1498.046875 1498.046875 L 0 1498.046875 Z M 0 0 " clip-rule="nonzero"/></clipPath><clipPath id="7c13fa2399"><path d="M 403.011719 0 L 1095.035156 0 C 1101.628906 0 1108.222656 0.160156 1114.808594 0.484375 C 1121.398438 0.808594 1127.972656 1.292969 1134.535156 1.941406 C 1141.101562 2.585938 1147.644531 3.394531 1154.167969 4.363281 C 1160.691406 5.328125 1167.1875 6.457031 1173.65625 7.742188 C 1180.125 9.03125 1186.558594 10.476562 1192.957031 12.078125 C 1199.355469 13.679688 1205.710938 15.4375 1212.023438 17.355469 C 1218.332031 19.269531 1224.59375 21.335938 1230.804688 23.558594 C 1237.015625 25.78125 1243.167969 28.152344 1249.261719 30.675781 C 1255.355469 33.203125 1261.382812 35.875 1267.34375 38.695312 C 1273.304688 41.511719 1279.195312 44.476562 1285.011719 47.585938 C 1290.828125 50.695312 1296.566406 53.945312 1302.222656 57.335938 C 1307.882812 60.726562 1313.453125 64.253906 1318.9375 67.917969 C 1324.417969 71.585938 1329.808594 75.378906 1335.109375 79.308594 C 1340.40625 83.238281 1345.605469 87.296875 1350.703125 91.480469 C 1355.800781 95.664062 1360.792969 99.96875 1365.679688 104.398438 C 1370.566406 108.828125 1375.34375 113.375 1380.007812 118.039062 C 1384.671875 122.703125 1389.21875 127.480469 1393.648438 132.367188 C 1398.074219 137.253906 1402.382812 142.246094 1406.566406 147.34375 C 1410.75 152.441406 1414.808594 157.640625 1418.738281 162.9375 C 1422.664062 168.234375 1426.460938 173.625 1430.125 179.109375 C 1433.789062 184.59375 1437.320312 190.164062 1440.710938 195.824219 C 1444.101562 201.480469 1447.351562 207.21875 1450.460938 213.035156 C 1453.570312 218.851562 1456.53125 224.738281 1459.351562 230.703125 C 1462.171875 236.664062 1464.84375 242.691406 1467.367188 248.785156 C 1469.894531 254.878906 1472.265625 261.03125 1474.488281 267.242188 C 1476.710938 273.453125 1478.777344 279.710938 1480.691406 286.023438 C 1482.605469 292.335938 1484.367188 298.691406 1485.96875 305.089844 C 1487.570312 311.488281 1489.015625 317.917969 1490.304688 324.390625 C 1491.589844 330.859375 1492.714844 337.355469 1493.683594 343.878906 C 1494.652344 350.402344 1495.460938 356.945312 1496.105469 363.511719 C 1496.753906 370.074219 1497.238281 376.648438 1497.5625 383.238281 C 1497.886719 389.824219 1498.046875 396.417969 1498.046875 403.011719 L 1498.046875 1095.035156 C 1498.046875 1101.628906 1497.886719 1108.222656 1497.5625 1114.808594 C 1497.238281 1121.398438 1496.753906 1127.972656 1496.105469 1134.535156 C 1495.460938 1141.101562 1494.652344 1147.644531 1493.683594 1154.167969 C 1492.714844 1160.691406 1491.589844 1167.1875 1490.304688 1173.65625 C 1489.015625 1180.125 1487.570312 1186.558594 1485.96875 1192.957031 C 1484.367188 1199.355469 1482.609375 1205.710938 1480.691406 1212.023438 C 1478.777344 1218.332031 1476.710938 1224.59375 1474.488281 1230.804688 C 1472.265625 1237.015625 1469.894531 1243.167969 1467.367188 1249.261719 C 1464.84375 1255.355469 1462.171875 1261.382812 1459.351562 1267.34375 C 1456.53125 1273.304688 1453.570312 1279.195312 1450.460938 1285.011719 C 1447.351562 1290.828125 1444.101562 1296.566406 1440.710938 1302.222656 C 1437.320312 1307.882812 1433.789062 1313.453125 1430.125 1318.9375 C 1426.460938 1324.417969 1422.664062 1329.808594 1418.738281 1335.109375 C 1414.808594 1340.40625 1410.75 1345.605469 1406.566406 1350.703125 C 1402.382812 1355.800781 1398.074219 1360.792969 1393.648438 1365.679688 C 1389.21875 1370.566406 1384.671875 1375.34375 1380.007812 1380.007812 C 1375.34375 1384.671875 1370.566406 1389.21875 1365.679688 1393.644531 C 1360.792969 1398.074219 1355.800781 1402.382812 1350.703125 1406.566406 C 1345.605469 1410.75 1340.40625 1414.808594 1335.109375 1418.738281 C 1329.8125 1422.664062 1324.417969 1426.460938 1318.9375 1430.125 C 1313.453125 1433.789062 1307.882812 1437.320312 1302.222656 1440.710938 C 1296.566406 1444.101562 1290.828125 1447.351562 1285.011719 1450.460938 C 1279.195312 1453.570312 1273.304688 1456.53125 1267.34375 1459.351562 C 1261.382812 1462.171875 1255.355469 1464.84375 1249.261719 1467.367188 C 1243.167969 1469.894531 1237.015625 1472.265625 1230.804688 1474.488281 C 1224.59375 1476.710938 1218.332031 1478.777344 1212.023438 1480.691406 C 1205.710938 1482.605469 1199.355469 1484.367188 1192.957031 1485.96875 C 1186.558594 1487.570312 1180.125 1489.015625 1173.65625 1490.300781 C 1167.1875 1491.589844 1160.691406 1492.714844 1154.167969 1493.683594 C 1147.644531 1494.652344 1141.101562 1495.460938 1134.535156 1496.105469 C 1127.972656 1496.753906 1121.398438 1497.238281 1114.808594 1497.5625 C 1108.222656 1497.882812 1101.628906 1498.046875 1095.035156 1498.046875 L 403.011719 1498.046875 C 396.417969 1498.046875 389.824219 1497.882812 383.238281 1497.5625 C 376.648438 1497.238281 370.074219 1496.753906 363.511719 1496.105469 C 356.945312 1495.460938 350.402344 1494.652344 343.878906 1493.683594 C 337.355469 1492.714844 330.859375 1491.589844 324.390625 1490.304688 C 317.917969 1489.015625 311.488281 1487.570312 305.089844 1485.96875 C 298.691406 1484.367188 292.335938 1482.609375 286.023438 1480.691406 C 279.710938 1478.777344 273.453125 1476.710938 267.242188 1474.488281 C 261.03125 1472.265625 254.878906 1469.894531 248.785156 1467.367188 C 242.691406 1464.84375 236.664062 1462.171875 230.703125 1459.351562 C 224.738281 1456.53125 218.851562 1453.570312 213.035156 1450.460938 C 207.21875 1447.351562 201.480469 1444.101562 195.824219 1440.710938 C 190.164062 1437.320312 184.59375 1433.789062 179.109375 1430.125 C 173.625 1426.460938 168.234375 1422.664062 162.9375 1418.738281 C 157.640625 1414.808594 152.441406 1410.75 147.34375 1406.566406 C 142.246094 1402.382812 137.253906 1398.074219 132.367188 1393.644531 C 127.480469 1389.21875 122.703125 1384.671875 118.039062 1380.007812 C 113.375 1375.34375 108.828125 1370.566406 104.398438 1365.679688 C 99.96875 1360.792969 95.664062 1355.800781 91.480469 1350.703125 C 87.296875 1345.605469 83.238281 1340.40625 79.308594 1335.109375 C 75.382812 1329.808594 71.585938 1324.417969 67.917969 1318.9375 C 64.253906 1313.453125 60.726562 1307.882812 57.335938 1302.222656 C 53.945312 1296.566406 50.695312 1290.828125 47.585938 1285.011719 C 44.476562 1279.195312 41.511719 1273.304688 38.695312 1267.34375 C 35.875 1261.382812 33.203125 1255.355469 30.675781 1249.261719 C 28.152344 1243.167969 25.78125 1237.015625 23.558594 1230.804688 C 21.335938 1224.59375 19.269531 1218.332031 17.355469 1212.023438 C 15.4375 1205.710938 13.679688 1199.355469 12.078125 1192.957031 C 10.476562 1186.558594 9.03125 1180.125 7.742188 1173.65625 C 6.457031 1167.1875 5.328125 1160.691406 4.363281 1154.167969 C 3.394531 1147.644531 2.585938 1141.101562 1.941406 1134.535156 C 1.292969 1127.972656 0.808594 1121.398438 0.484375 1114.808594 C 0.160156 1108.222656 0 1101.628906 0 1095.035156 L 0 403.011719 C 0 396.417969 0.160156 389.824219 0.484375 383.238281 C 0.808594 376.648438 1.292969 370.074219 1.941406 363.511719 C 2.585938 356.945312 3.394531 350.402344 4.363281 343.878906 C 5.328125 337.355469 6.457031 330.859375 7.742188 324.390625 C 9.03125 317.917969 10.476562 311.488281 12.078125 305.089844 C 13.679688 298.691406 15.4375 292.335938 17.355469 286.023438 C 19.269531 279.710938 21.335938 273.453125 23.558594 267.242188 C 25.78125 261.03125 28.152344 254.878906 30.675781 248.785156 C 33.203125 242.691406 35.875 236.664062 38.695312 230.703125 C 41.511719 224.738281 44.476562 218.851562 47.585938 213.035156 C 50.695312 207.21875 53.945312 201.480469 57.335938 195.824219 C 60.726562 190.164062 64.253906 184.59375 67.917969 179.109375 C 71.585938 173.625 75.382812 168.234375 79.308594 162.9375 C 83.238281 157.640625 87.296875 152.441406 91.480469 147.34375 C 95.664062 142.246094 99.96875 137.253906 104.398438 132.367188 C 108.828125 127.480469 113.375 122.703125 118.039062 118.039062 C 122.703125 113.375 127.480469 108.828125 132.367188 104.398438 C 137.253906 99.96875 142.246094 95.664062 147.34375 91.480469 C 152.441406 87.296875 157.640625 83.238281 162.9375 79.308594 C 168.234375 75.378906 173.625 71.585938 179.109375 67.917969 C 184.59375 64.253906 190.164062 60.726562 195.824219 57.335938 C 201.480469 53.945312 207.21875 50.695312 213.035156 47.585938 C 218.851562 44.476562 224.738281 41.511719 230.703125 38.695312 C 236.664062 35.875 242.691406 33.203125 248.785156 30.675781 C 254.878906 28.152344 261.03125 25.78125 267.242188 23.558594 C 273.453125 21.335938 279.710938 19.269531 286.023438 17.355469 C 292.335938 15.4375 298.691406 13.679688 305.089844 12.078125 C 311.488281 10.476562 317.917969 9.03125 324.390625 7.742188 C 330.859375 6.457031 337.355469 5.328125 343.878906 4.363281 C 350.402344 3.394531 356.945312 2.585938 363.511719 1.941406 C 370.074219 1.292969 376.648438 0.808594 383.238281 0.484375 C 389.824219 0.160156 396.417969 0 403.011719 0 Z M 403.011719 0 " clip-rule="nonzero"/></clipPath><linearGradient x1="21.351884" gradientTransform="matrix(0, -6.347655, 6.347655, 0, 0.00003335, 1498.046563)" y1="-15.462289" x2="214.648922" gradientUnits="userSpaceOnUse" y2="251.461701" id="bc08854943"><stop stop-opacity="1" stop-color="rgb(49.612427%, 66.285706%, 95.707703%)" offset="0"/><stop stop-opacity="1" stop-color="rgb(49.57428%, 66.00647%, 95.657349%)" offset="0.00390625"/><stop stop-opacity="1" stop-color="rgb(49.537659%, 65.72876%, 95.608521%)" offset="0.0078125"/><stop stop-opacity="1" stop-color="rgb(49.499512%, 65.449524%, 95.559692%)" offset="0.0117188"/><stop stop-opacity="1" stop-color="rgb(49.461365%, 65.171814%, 95.510864%)" offset="0.015625"/><stop stop-opacity="1" stop-color="rgb(49.423218%, 64.892578%, 95.46051%)" offset="0.0195313"/><stop stop-opacity="1" stop-color="rgb(49.385071%, 64.614868%, 95.411682%)" offset="0.0234375"/><stop stop-opacity="1" stop-color="rgb(49.346924%, 64.335632%, 95.362854%)" offset="0.0273438"/><stop stop-opacity="1" stop-color="rgb(49.310303%, 64.057922%, 95.314026%)" offset="0.03125"/><stop stop-opacity="1" stop-color="rgb(49.272156%, 63.778687%, 95.263672%)" offset="0.0351562"/><stop stop-opacity="1" stop-color="rgb(49.234009%, 63.500977%, 95.214844%)" offset="0.0390625"/><stop stop-opacity="1" stop-color="rgb(49.195862%, 63.221741%, 95.166016%)" offset="0.0429688"/><stop stop-opacity="1" stop-color="rgb(49.157715%, 62.944031%, 95.117188%)" offset="0.046875"/><stop stop-opacity="1" stop-color="rgb(49.119568%, 62.664795%, 95.066833%)" offset="0.0507812"/><stop stop-opacity="1" stop-color="rgb(49.082947%, 62.387085%, 95.018005%)" offset="0.0546875"/><stop stop-opacity="1" stop-color="rgb(49.0448%, 62.107849%, 94.967651%)" offset="0.0585938"/><stop stop-opacity="1" stop-color="rgb(49.006653%, 61.830139%, 94.918823%)" offset="0.0625"/><stop stop-opacity="1" stop-color="rgb(48.968506%, 61.550903%, 94.869995%)" offset="0.0664062"/><stop stop-opacity="1" stop-color="rgb(48.930359%, 61.273193%, 94.821167%)" offset="0.0703125"/><stop stop-opacity="1" stop-color="rgb(48.892212%, 60.993958%, 94.770813%)" offset="0.0742188"/><stop stop-opacity="1" stop-color="rgb(48.855591%, 60.716248%, 94.721985%)" offset="0.078125"/><stop stop-opacity="1" stop-color="rgb(48.817444%, 60.437012%, 94.673157%)" offset="0.0820312"/><stop stop-opacity="1" stop-color="rgb(48.779297%, 60.159302%, 94.624329%)" offset="0.0859375"/><stop stop-opacity="1" stop-color="rgb(48.74115%, 59.880066%, 94.573975%)" offset="0.0898438"/><stop stop-opacity="1" stop-color="rgb(48.703003%, 59.602356%, 94.525146%)" offset="0.09375"/><stop stop-opacity="1" stop-color="rgb(48.664856%, 59.32312%, 94.476318%)" offset="0.0976562"/><stop stop-opacity="1" stop-color="rgb(48.626709%, 59.04541%, 94.42749%)" offset="0.101563"/><stop stop-opacity="1" stop-color="rgb(48.588562%, 58.7677%, 94.377136%)" offset="0.105469"/><stop stop-opacity="1" stop-color="rgb(48.551941%, 58.48999%, 94.328308%)" offset="0.109375"/><stop stop-opacity="1" stop-color="rgb(48.513794%, 58.210754%, 94.277954%)" offset="0.113281"/><stop stop-opacity="1" stop-color="rgb(48.475647%, 57.933044%, 94.229126%)" offset="0.117187"/><stop stop-opacity="1" stop-color="rgb(48.4375%, 57.653809%, 94.180298%)" offset="0.121094"/><stop stop-opacity="1" stop-color="rgb(48.399353%, 57.376099%, 94.13147%)" offset="0.125"/><stop stop-opacity="1" stop-color="rgb(48.361206%, 57.096863%, 94.081116%)" offset="0.128906"/><stop stop-opacity="1" stop-color="rgb(48.324585%, 56.819153%, 94.032288%)" offset="0.132812"/><stop stop-opacity="1" stop-color="rgb(48.286438%, 56.539917%, 93.983459%)" offset="0.136719"/><stop stop-opacity="1" stop-color="rgb(48.248291%, 56.262207%, 93.934631%)" offset="0.140625"/><stop stop-opacity="1" stop-color="rgb(48.210144%, 55.982971%, 93.884277%)" offset="0.144531"/><stop stop-opacity="1" stop-color="rgb(48.171997%, 55.705261%, 93.835449%)" offset="0.148437"/><stop stop-opacity="1" stop-color="rgb(48.13385%, 55.426025%, 93.786621%)" offset="0.152344"/><stop stop-opacity="1" stop-color="rgb(48.097229%, 55.148315%, 93.737793%)" offset="0.15625"/><stop stop-opacity="1" stop-color="rgb(48.059082%, 54.86908%, 93.687439%)" offset="0.160156"/><stop stop-opacity="1" stop-color="rgb(48.020935%, 54.59137%, 93.638611%)" offset="0.164062"/><stop stop-opacity="1" stop-color="rgb(47.982788%, 54.312134%, 93.588257%)" offset="0.167969"/><stop stop-opacity="1" stop-color="rgb(47.944641%, 54.034424%, 93.539429%)" offset="0.171875"/><stop stop-opacity="1" stop-color="rgb(47.906494%, 53.755188%, 93.490601%)" offset="0.175781"/><stop stop-opacity="1" stop-color="rgb(47.869873%, 53.477478%, 93.441772%)" offset="0.179688"/><stop stop-opacity="1" stop-color="rgb(47.831726%, 53.198242%, 93.391418%)" offset="0.183594"/><stop stop-opacity="1" stop-color="rgb(47.793579%, 52.920532%, 93.34259%)" offset="0.1875"/><stop stop-opacity="1" stop-color="rgb(47.755432%, 52.641296%, 93.293762%)" offset="0.191406"/><stop stop-opacity="1" stop-color="rgb(47.717285%, 52.363586%, 93.244934%)" offset="0.195312"/><stop stop-opacity="1" stop-color="rgb(47.679138%, 52.084351%, 93.19458%)" offset="0.199219"/><stop stop-opacity="1" stop-color="rgb(47.640991%, 51.806641%, 93.145752%)" offset="0.203125"/><stop stop-opacity="1" stop-color="rgb(47.602844%, 51.527405%, 93.096924%)" offset="0.207031"/><stop stop-opacity="1" stop-color="rgb(47.566223%, 51.249695%, 93.048096%)" offset="0.210938"/><stop stop-opacity="1" stop-color="rgb(47.528076%, 50.970459%, 92.997742%)" offset="0.214844"/><stop stop-opacity="1" stop-color="rgb(47.489929%, 50.692749%, 92.948914%)" offset="0.21875"/><stop stop-opacity="1" stop-color="rgb(47.451782%, 50.413513%, 92.900085%)" offset="0.222656"/><stop stop-opacity="1" stop-color="rgb(47.413635%, 50.135803%, 92.851257%)" offset="0.226562"/><stop stop-opacity="1" stop-color="rgb(47.375488%, 49.856567%, 92.800903%)" offset="0.230469"/><stop stop-opacity="1" stop-color="rgb(47.338867%, 49.578857%, 92.752075%)" offset="0.234375"/><stop stop-opacity="1" stop-color="rgb(47.30072%, 49.299622%, 92.701721%)" offset="0.238281"/><stop stop-opacity="1" stop-color="rgb(47.262573%, 49.021912%, 92.652893%)" offset="0.242188"/><stop stop-opacity="1" stop-color="rgb(47.224426%, 48.744202%, 92.604065%)" offset="0.246094"/><stop stop-opacity="1" stop-color="rgb(47.186279%, 48.466492%, 92.555237%)" offset="0.25"/><stop stop-opacity="1" stop-color="rgb(47.148132%, 48.187256%, 92.504883%)" offset="0.253906"/><stop stop-opacity="1" stop-color="rgb(47.111511%, 47.909546%, 92.456055%)" offset="0.257812"/><stop stop-opacity="1" stop-color="rgb(47.073364%, 47.63031%, 92.407227%)" offset="0.261719"/><stop stop-opacity="1" stop-color="rgb(47.035217%, 47.3526%, 92.358398%)" offset="0.265625"/><stop stop-opacity="1" stop-color="rgb(46.99707%, 47.073364%, 92.308044%)" offset="0.269531"/><stop stop-opacity="1" stop-color="rgb(46.958923%, 46.795654%, 92.259216%)" offset="0.273438"/><stop stop-opacity="1" stop-color="rgb(46.920776%, 46.516418%, 92.210388%)" offset="0.277344"/><stop stop-opacity="1" stop-color="rgb(46.884155%, 46.238708%, 92.16156%)" offset="0.28125"/><stop stop-opacity="1" stop-color="rgb(46.846008%, 45.959473%, 92.111206%)" offset="0.285156"/><stop stop-opacity="1" stop-color="rgb(46.807861%, 45.681763%, 92.062378%)" offset="0.289062"/><stop stop-opacity="1" stop-color="rgb(46.769714%, 45.402527%, 92.012024%)" offset="0.292969"/><stop stop-opacity="1" stop-color="rgb(46.731567%, 45.124817%, 91.963196%)" offset="0.296875"/><stop stop-opacity="1" stop-color="rgb(46.69342%, 44.845581%, 91.914368%)" offset="0.300781"/><stop stop-opacity="1" stop-color="rgb(46.655273%, 44.567871%, 91.86554%)" offset="0.304688"/><stop stop-opacity="1" stop-color="rgb(46.617126%, 44.288635%, 91.815186%)" offset="0.308594"/><stop stop-opacity="1" stop-color="rgb(46.580505%, 44.010925%, 91.766357%)" offset="0.3125"/><stop stop-opacity="1" stop-color="rgb(46.542358%, 43.731689%, 91.717529%)" offset="0.316406"/><stop stop-opacity="1" stop-color="rgb(46.504211%, 43.453979%, 91.668701%)" offset="0.320312"/><stop stop-opacity="1" stop-color="rgb(46.466064%, 43.174744%, 91.618347%)" offset="0.324219"/><stop stop-opacity="1" stop-color="rgb(46.427917%, 42.897034%, 91.569519%)" offset="0.328125"/><stop stop-opacity="1" stop-color="rgb(46.389771%, 42.617798%, 91.520691%)" offset="0.332031"/><stop stop-opacity="1" stop-color="rgb(46.353149%, 42.340088%, 91.471863%)" offset="0.335938"/><stop stop-opacity="1" stop-color="rgb(46.315002%, 42.060852%, 91.421509%)" offset="0.339844"/><stop stop-opacity="1" stop-color="rgb(46.276855%, 41.783142%, 91.372681%)" offset="0.34375"/><stop stop-opacity="1" stop-color="rgb(46.238708%, 41.503906%, 91.322327%)" offset="0.347656"/><stop stop-opacity="1" stop-color="rgb(46.200562%, 41.226196%, 91.273499%)" offset="0.351562"/><stop stop-opacity="1" stop-color="rgb(46.162415%, 40.94696%, 91.22467%)" offset="0.355469"/><stop stop-opacity="1" stop-color="rgb(46.125793%, 40.66925%, 91.175842%)" offset="0.359375"/><stop stop-opacity="1" stop-color="rgb(46.087646%, 40.390015%, 91.125488%)" offset="0.363281"/><stop stop-opacity="1" stop-color="rgb(46.0495%, 40.112305%, 91.07666%)" offset="0.367188"/><stop stop-opacity="1" stop-color="rgb(46.011353%, 39.833069%, 91.027832%)" offset="0.371094"/><stop stop-opacity="1" stop-color="rgb(45.973206%, 39.555359%, 90.979004%)" offset="0.375"/><stop stop-opacity="1" stop-color="rgb(45.935059%, 39.277649%, 90.92865%)" offset="0.378906"/><stop stop-opacity="1" stop-color="rgb(45.898438%, 38.999939%, 90.879822%)" offset="0.382813"/><stop stop-opacity="1" stop-color="rgb(45.860291%, 38.720703%, 90.830994%)" offset="0.386719"/><stop stop-opacity="1" stop-color="rgb(45.822144%, 38.442993%, 90.782166%)" offset="0.390625"/><stop stop-opacity="1" stop-color="rgb(45.783997%, 38.163757%, 90.731812%)" offset="0.394531"/><stop stop-opacity="1" stop-color="rgb(45.74585%, 37.886047%, 90.682983%)" offset="0.398438"/><stop stop-opacity="1" stop-color="rgb(45.707703%, 37.606812%, 90.632629%)" offset="0.402344"/><stop stop-opacity="1" stop-color="rgb(45.669556%, 37.329102%, 90.583801%)" offset="0.40625"/><stop stop-opacity="1" stop-color="rgb(45.631409%, 37.049866%, 90.534973%)" offset="0.410156"/><stop stop-opacity="1" stop-color="rgb(45.594788%, 36.772156%, 90.486145%)" offset="0.414062"/><stop stop-opacity="1" stop-color="rgb(45.556641%, 36.49292%, 90.435791%)" offset="0.417969"/><stop stop-opacity="1" stop-color="rgb(45.518494%, 36.21521%, 90.386963%)" offset="0.421875"/><stop stop-opacity="1" stop-color="rgb(45.480347%, 35.935974%, 90.338135%)" offset="0.425781"/><stop stop-opacity="1" stop-color="rgb(45.4422%, 35.658264%, 90.289307%)" offset="0.429688"/><stop stop-opacity="1" stop-color="rgb(45.404053%, 35.379028%, 90.238953%)" offset="0.433594"/><stop stop-opacity="1" stop-color="rgb(45.367432%, 35.101318%, 90.190125%)" offset="0.4375"/><stop stop-opacity="1" stop-color="rgb(45.329285%, 34.822083%, 90.141296%)" offset="0.441406"/><stop stop-opacity="1" stop-color="rgb(45.291138%, 34.544373%, 90.092468%)" offset="0.445312"/><stop stop-opacity="1" stop-color="rgb(45.252991%, 34.265137%, 90.042114%)" offset="0.449219"/><stop stop-opacity="1" stop-color="rgb(45.214844%, 33.987427%, 89.993286%)" offset="0.453125"/><stop stop-opacity="1" stop-color="rgb(45.176697%, 33.708191%, 89.942932%)" offset="0.457031"/><stop stop-opacity="1" stop-color="rgb(45.140076%, 33.430481%, 89.894104%)" offset="0.460938"/><stop stop-opacity="1" stop-color="rgb(45.101929%, 33.151245%, 89.845276%)" offset="0.464844"/><stop stop-opacity="1" stop-color="rgb(45.063782%, 32.873535%, 89.796448%)" offset="0.46875"/><stop stop-opacity="1" stop-color="rgb(45.025635%, 32.594299%, 89.746094%)" offset="0.472656"/><stop stop-opacity="1" stop-color="rgb(44.987488%, 32.316589%, 89.697266%)" offset="0.476562"/><stop stop-opacity="1" stop-color="rgb(44.949341%, 32.037354%, 89.648438%)" offset="0.480469"/><stop stop-opacity="1" stop-color="rgb(44.91272%, 31.759644%, 89.599609%)" offset="0.484375"/><stop stop-opacity="1" stop-color="rgb(44.874573%, 31.480408%, 89.549255%)" offset="0.488281"/><stop stop-opacity="1" stop-color="rgb(44.836426%, 31.202698%, 89.500427%)" offset="0.492187"/><stop stop-opacity="1" stop-color="rgb(44.798279%, 30.923462%, 89.451599%)" offset="0.496094"/><stop stop-opacity="1" stop-color="rgb(44.760132%, 30.645752%, 89.402771%)" offset="0.5"/><stop stop-opacity="1" stop-color="rgb(44.721985%, 30.366516%, 89.352417%)" offset="0.503906"/><stop stop-opacity="1" stop-color="rgb(44.683838%, 30.088806%, 89.303589%)" offset="0.507812"/><stop stop-opacity="1" stop-color="rgb(44.645691%, 29.811096%, 89.253235%)" offset="0.511719"/><stop stop-opacity="1" stop-color="rgb(44.60907%, 29.533386%, 89.204407%)" offset="0.515625"/><stop stop-opacity="1" stop-color="rgb(44.570923%, 29.25415%, 89.155579%)" offset="0.519531"/><stop stop-opacity="1" stop-color="rgb(44.532776%, 28.97644%, 89.10675%)" offset="0.523438"/><stop stop-opacity="1" stop-color="rgb(44.494629%, 28.697205%, 89.056396%)" offset="0.527344"/><stop stop-opacity="1" stop-color="rgb(44.456482%, 28.419495%, 89.007568%)" offset="0.53125"/><stop stop-opacity="1" stop-color="rgb(44.418335%, 28.140259%, 88.95874%)" offset="0.535156"/><stop stop-opacity="1" stop-color="rgb(44.381714%, 27.862549%, 88.909912%)" offset="0.539062"/><stop stop-opacity="1" stop-color="rgb(44.343567%, 27.583313%, 88.859558%)" offset="0.542969"/><stop stop-opacity="1" stop-color="rgb(44.30542%, 27.305603%, 88.81073%)" offset="0.546875"/><stop stop-opacity="1" stop-color="rgb(44.267273%, 27.026367%, 88.761902%)" offset="0.550781"/><stop stop-opacity="1" stop-color="rgb(44.229126%, 26.748657%, 88.713074%)" offset="0.554688"/><stop stop-opacity="1" stop-color="rgb(44.190979%, 26.469421%, 88.66272%)" offset="0.558594"/><stop stop-opacity="1" stop-color="rgb(44.154358%, 26.191711%, 88.613892%)" offset="0.5625"/><stop stop-opacity="1" stop-color="rgb(44.116211%, 25.912476%, 88.563538%)" offset="0.566406"/><stop stop-opacity="1" stop-color="rgb(44.078064%, 25.634766%, 88.514709%)" offset="0.570312"/><stop stop-opacity="1" stop-color="rgb(44.039917%, 25.35553%, 88.465881%)" offset="0.574219"/><stop stop-opacity="1" stop-color="rgb(44.00177%, 25.07782%, 88.417053%)" offset="0.578125"/><stop stop-opacity="1" stop-color="rgb(43.963623%, 24.798584%, 88.366699%)" offset="0.582031"/><stop stop-opacity="1" stop-color="rgb(43.927002%, 24.520874%, 88.317871%)" offset="0.585938"/><stop stop-opacity="1" stop-color="rgb(43.888855%, 24.241638%, 88.269043%)" offset="0.589844"/><stop stop-opacity="1" stop-color="rgb(43.850708%, 23.963928%, 88.220215%)" offset="0.59375"/><stop stop-opacity="1" stop-color="rgb(43.812561%, 23.684692%, 88.169861%)" offset="0.597656"/><stop stop-opacity="1" stop-color="rgb(43.774414%, 23.406982%, 88.121033%)" offset="0.601563"/><stop stop-opacity="1" stop-color="rgb(43.736267%, 23.127747%, 88.072205%)" offset="0.605469"/><stop stop-opacity="1" stop-color="rgb(43.69812%, 22.850037%, 88.023376%)" offset="0.609375"/><stop stop-opacity="1" stop-color="rgb(43.659973%, 22.570801%, 87.973022%)" offset="0.613281"/><stop stop-opacity="1" stop-color="rgb(43.623352%, 22.293091%, 87.924194%)" offset="0.617188"/><stop stop-opacity="1" stop-color="rgb(43.585205%, 22.013855%, 87.87384%)" offset="0.621094"/><stop stop-opacity="1" stop-color="rgb(43.547058%, 21.736145%, 87.825012%)" offset="0.625"/><stop stop-opacity="1" stop-color="rgb(43.508911%, 21.456909%, 87.776184%)" offset="0.628906"/><stop stop-opacity="1" stop-color="rgb(43.470764%, 21.179199%, 87.727356%)" offset="0.632812"/><stop stop-opacity="1" stop-color="rgb(43.432617%, 20.899963%, 87.677002%)" offset="0.636719"/><stop stop-opacity="1" stop-color="rgb(43.395996%, 20.622253%, 87.628174%)" offset="0.640625"/><stop stop-opacity="1" stop-color="rgb(43.357849%, 20.343018%, 87.579346%)" offset="0.644531"/><stop stop-opacity="1" stop-color="rgb(43.319702%, 20.065308%, 87.530518%)" offset="0.648438"/><stop stop-opacity="1" stop-color="rgb(43.281555%, 19.787598%, 87.480164%)" offset="0.652344"/><stop stop-opacity="1" stop-color="rgb(43.243408%, 19.509888%, 87.431335%)" offset="0.65625"/><stop stop-opacity="1" stop-color="rgb(43.205261%, 19.230652%, 87.382507%)" offset="0.660156"/><stop stop-opacity="1" stop-color="rgb(43.16864%, 18.952942%, 87.333679%)" offset="0.664062"/><stop stop-opacity="1" stop-color="rgb(43.130493%, 18.673706%, 87.283325%)" offset="0.667969"/><stop stop-opacity="1" stop-color="rgb(43.092346%, 18.395996%, 87.234497%)" offset="0.671875"/><stop stop-opacity="1" stop-color="rgb(43.054199%, 18.11676%, 87.185669%)" offset="0.675781"/><stop stop-opacity="1" stop-color="rgb(43.016052%, 17.83905%, 87.136841%)" offset="0.679688"/><stop stop-opacity="1" stop-color="rgb(42.977905%, 17.559814%, 87.086487%)" offset="0.683594"/><stop stop-opacity="1" stop-color="rgb(42.941284%, 17.282104%, 87.037659%)" offset="0.6875"/><stop stop-opacity="1" stop-color="rgb(42.903137%, 17.002869%, 86.987305%)" offset="0.691406"/><stop stop-opacity="1" stop-color="rgb(42.86499%, 16.725159%, 86.938477%)" offset="0.695313"/><stop stop-opacity="1" stop-color="rgb(42.826843%, 16.445923%, 86.889648%)" offset="0.699219"/><stop stop-opacity="1" stop-color="rgb(42.788696%, 16.168213%, 86.84082%)" offset="0.703125"/><stop stop-opacity="1" stop-color="rgb(42.750549%, 15.888977%, 86.790466%)" offset="0.707031"/><stop stop-opacity="1" stop-color="rgb(42.712402%, 15.611267%, 86.741638%)" offset="0.710938"/><stop stop-opacity="1" stop-color="rgb(42.674255%, 15.332031%, 86.69281%)" offset="0.714844"/><stop stop-opacity="1" stop-color="rgb(42.637634%, 15.054321%, 86.643982%)" offset="0.71875"/><stop stop-opacity="1" stop-color="rgb(42.599487%, 14.775085%, 86.593628%)" offset="0.722656"/><stop stop-opacity="1" stop-color="rgb(42.56134%, 14.497375%, 86.5448%)" offset="0.726562"/><stop stop-opacity="1" stop-color="rgb(42.523193%, 14.21814%, 86.495972%)" offset="0.730469"/><stop stop-opacity="1" stop-color="rgb(42.485046%, 13.94043%, 86.447144%)" offset="0.734375"/><stop stop-opacity="1" stop-color="rgb(42.446899%, 13.661194%, 86.39679%)" offset="0.738281"/><stop stop-opacity="1" stop-color="rgb(42.410278%, 13.383484%, 86.347961%)" offset="0.742188"/><stop stop-opacity="1" stop-color="rgb(42.379761%, 13.160706%, 86.308289%)" offset="0.746094"/><stop stop-opacity="1" stop-color="rgb(42.349243%, 12.939453%, 86.268616%)" offset="0.75"/><stop stop-opacity="1" stop-color="rgb(42.349243%, 12.939453%, 86.268616%)" offset="1"/></linearGradient><clipPath id="440f6aae9d"><path d="M 260 305.136719 L 506 305.136719 L 506 1198.203125 L 260 1198.203125 Z M 260 305.136719 " clip-rule="nonzero"/></clipPath><clipPath id="9ab30d8fa8"><path d="M 505 305.136719 L 750 305.136719 L 750 1198.203125 L 505 1198.203125 Z M 505 305.136719 " clip-rule="nonzero"/></clipPath><clipPath id="1f489fe1ef"><path d="M 749 305.136719 L 995 305.136719 L 995 1198.203125 L 749 1198.203125 Z M 749 305.136719 " clip-rule="nonzero"/></clipPath><clipPath id="1c32208165"><path d="M 994 305.136719 L 1239 305.136719 L 1239 1198.203125 L 994 1198.203125 Z M 994 305.136719 " clip-rule="nonzero"/></clipPath><clipPath id="3f5df093a1"><rect x="0" width="1500" y="0" height="1500"/></clipPath></defs><rect x="-150" width="1800" fill="#ffffff" y="-149.999993" height="1799.99992" fill-opacity="1"/><rect x="-150" width="1800" fill="#f6f6f6" y="-149.999993" height="1799.99992" fill-opacity="1"/><g transform="matrix(1, 0, 0, 1, 0, 0.000000000000112861)"><g clip-path="url(#3f5df093a1)"><g clip-path="url(#020d31a76a)"><g clip-path="url(#7c13fa2399)"><path fill="url(#bc08854943)" d="M 0 1498.046875 L 1498.046875 1498.046875 L 1498.046875 0 L 0 0 Z M 0 1498.046875 " fill-rule="nonzero"/></g></g><g clip-path="url(#440f6aae9d)"><path fill="#ffffff" d="M 261.761719 1198.203125 L 505.472656 900.238281 L 505.472656 305.136719 L 260.65625 604.488281 Z M 261.761719 1198.203125 " fill-opacity="1" fill-rule="nonzero"/></g><g clip-path="url(#9ab30d8fa8)"><path fill="#c0bff2" d="M 505.472656 305.136719 L 749.667969 603.101562 L 749.667969 1198.203125 L 505.472656 898.847656 Z M 505.472656 305.136719 " fill-opacity="1" fill-rule="nonzero"/></g><g clip-path="url(#1f489fe1ef)"><path fill="#dbd5f4" d="M 750.769531 1198.203125 L 994.480469 900.238281 L 994.480469 305.136719 L 749.667969 604.488281 Z M 750.769531 1198.203125 " fill-opacity="1" fill-rule="nonzero"/></g><g clip-path="url(#1c32208165)"><path fill="#a287ec" d="M 994.480469 305.136719 L 1238.742188 603.101562 L 1238.742188 1198.203125 L 994.480469 898.847656 Z M 994.480469 305.136719 " fill-opacity="1" fill-rule="nonzero"/></g></g></g></svg>